<?xml version="1.0" encoding="UTF-8"?>
<svg id="Layer_2" data-name="Layer 2" xmlns="http://www.w3.org/2000/svg" viewBox="0 0 512 524.87">
  <defs>
    <style>
      .cls-1 {
        fill: rgb(75, 85, 99);
      }

      .cls-2 {
        fill: rgb(37, 99, 235);
      }
    </style>
  </defs>
  <g id="Layer_1-2" data-name="Layer 1">
    <g>
      <path class="cls-1" d="M468.93,108.89h-52.95V372.91c0,23.79-19.28,43.07-43.07,43.07H96.02v65.82c0,23.79,19.28,43.07,43.07,43.07H468.93c23.79,0,43.07-19.28,43.07-43.07V151.96c0-23.79-19.28-43.07-43.07-43.07Z"/>
      <path class="cls-2" d="M415.98,372.91V43.07C415.98,19.28,396.7,0,372.91,0H43.07C19.28,0,0,19.28,0,43.07V372.91C0,396.7,19.28,415.98,43.07,415.98H372.91c23.79,0,43.07-19.28,43.07-43.07Z"/>
    </g>
  </g>
</svg>
